<mxfile host="app.diagrams.net" modified="2021-02-15T11:24:41.317Z" agent="5.0 (Windows NT 6.1; Win64; x64) AppleWebKit/537.36 (KHTML, like Gecko) Chrome/88.0.4324.150 Safari/537.36" etag="ssW-OFQgjCoLjDfWOy9Z" version="14.3.1" type="github">
  <diagram id="ySToAvSGsjhQv4NrmPRr" name="Page-1">
    <mxGraphModel dx="782" dy="738" grid="1" gridSize="10" guides="1" tooltips="1" connect="1" arrows="1" fold="1" page="1" pageScale="1" pageWidth="827" pageHeight="1169" math="0" shadow="0">
      <root>
        <mxCell id="0" />
        <mxCell id="1" parent="0" />
        <mxCell id="_5YoYfEXeYqXbbBFYo9I-1" value="" style="strokeWidth=1;shadow=0;dashed=0;align=center;html=1;shape=mxgraph.mockup.containers.browserWindow;rSize=0;strokeColor=#666666;strokeColor2=#008cff;strokeColor3=#c4c4c4;mainText=,;recursiveResize=0;" vertex="1" parent="1">
          <mxGeometry x="100" y="145" width="600" height="485" as="geometry" />
        </mxCell>
        <mxCell id="_5YoYfEXeYqXbbBFYo9I-2" value="Classes" style="strokeWidth=1;shadow=0;dashed=0;align=center;html=1;shape=mxgraph.mockup.containers.anchor;fontSize=17;fontColor=#666666;align=left;" vertex="1" parent="_5YoYfEXeYqXbbBFYo9I-1">
          <mxGeometry x="60" y="12" width="110" height="26" as="geometry" />
        </mxCell>
        <mxCell id="_5YoYfEXeYqXbbBFYo9I-3" value="https://classroom.google.com/h" style="strokeWidth=1;shadow=0;dashed=0;align=center;html=1;shape=mxgraph.mockup.containers.anchor;rSize=0;fontSize=17;fontColor=#666666;align=left;" vertex="1" parent="_5YoYfEXeYqXbbBFYo9I-1">
          <mxGeometry x="130" y="60" width="250" height="26" as="geometry" />
        </mxCell>
        <mxCell id="_5YoYfEXeYqXbbBFYo9I-13" value="" style="shape=image;html=1;verticalAlign=top;verticalLabelPosition=bottom;labelBackgroundColor=#ffffff;imageAspect=0;aspect=fixed;image=https://cdn1.iconfinder.com/data/icons/office-222/91/General_Office_30-128.png" vertex="1" parent="_5YoYfEXeYqXbbBFYo9I-1">
          <mxGeometry x="10" y="120" width="20" height="20" as="geometry" />
        </mxCell>
        <mxCell id="_5YoYfEXeYqXbbBFYo9I-14" value="Google Classroom" style="text;html=1;strokeColor=none;fillColor=none;align=center;verticalAlign=middle;whiteSpace=wrap;rounded=0;" vertex="1" parent="_5YoYfEXeYqXbbBFYo9I-1">
          <mxGeometry x="40" y="120" width="110" height="20" as="geometry" />
        </mxCell>
        <mxCell id="_5YoYfEXeYqXbbBFYo9I-15" value="" style="shape=image;html=1;verticalAlign=top;verticalLabelPosition=bottom;labelBackgroundColor=#ffffff;imageAspect=0;aspect=fixed;image=https://cdn4.iconfinder.com/data/icons/basic-user-interface-elements/700/plus-add-new-create-attach-maximize-128.png" vertex="1" parent="_5YoYfEXeYqXbbBFYo9I-1">
          <mxGeometry x="496" y="130" width="20" height="20" as="geometry" />
        </mxCell>
        <mxCell id="_5YoYfEXeYqXbbBFYo9I-17" value="" style="shape=image;html=1;verticalAlign=top;verticalLabelPosition=bottom;labelBackgroundColor=#ffffff;imageAspect=0;aspect=fixed;image=https://cdn4.iconfinder.com/data/icons/48-bubbles/48/30.User-128.png" vertex="1" parent="_5YoYfEXeYqXbbBFYo9I-1">
          <mxGeometry x="560" y="130" width="20" height="20" as="geometry" />
        </mxCell>
        <mxCell id="_5YoYfEXeYqXbbBFYo9I-18" value="" style="verticalLabelPosition=bottom;shadow=0;dashed=0;align=center;html=1;verticalAlign=top;strokeWidth=1;shape=mxgraph.mockup.graphics.simpleIcon;strokeColor=#999999;" vertex="1" parent="_5YoYfEXeYqXbbBFYo9I-1">
          <mxGeometry x="26" y="160" width="20" height="20" as="geometry" />
        </mxCell>
        <mxCell id="_5YoYfEXeYqXbbBFYo9I-19" value="" style="verticalLabelPosition=bottom;shadow=0;dashed=0;align=center;html=1;verticalAlign=top;strokeWidth=1;shape=mxgraph.mockup.graphics.simpleIcon;strokeColor=#999999;" vertex="1" parent="_5YoYfEXeYqXbbBFYo9I-1">
          <mxGeometry x="96" y="160" width="20" height="20" as="geometry" />
        </mxCell>
        <mxCell id="_5YoYfEXeYqXbbBFYo9I-20" value="to do" style="text;html=1;strokeColor=none;fillColor=none;align=center;verticalAlign=middle;whiteSpace=wrap;rounded=0;" vertex="1" parent="_5YoYfEXeYqXbbBFYo9I-1">
          <mxGeometry x="46" y="160" width="40" height="20" as="geometry" />
        </mxCell>
        <mxCell id="_5YoYfEXeYqXbbBFYo9I-21" value="calendar" style="text;html=1;strokeColor=none;fillColor=none;align=center;verticalAlign=middle;whiteSpace=wrap;rounded=0;" vertex="1" parent="_5YoYfEXeYqXbbBFYo9I-1">
          <mxGeometry x="116" y="160" width="64" height="20" as="geometry" />
        </mxCell>
        <mxCell id="_5YoYfEXeYqXbbBFYo9I-22" value="" style="verticalLabelPosition=bottom;shadow=0;dashed=0;align=center;html=1;verticalAlign=top;strokeWidth=1;shape=mxgraph.mockup.graphics.simpleIcon;strokeColor=#999999;" vertex="1" parent="_5YoYfEXeYqXbbBFYo9I-1">
          <mxGeometry x="20" y="210" width="110" height="110" as="geometry" />
        </mxCell>
        <mxCell id="_5YoYfEXeYqXbbBFYo9I-23" value="" style="verticalLabelPosition=bottom;shadow=0;dashed=0;align=center;html=1;verticalAlign=top;strokeWidth=1;shape=mxgraph.mockup.graphics.simpleIcon;strokeColor=#999999;" vertex="1" parent="_5YoYfEXeYqXbbBFYo9I-1">
          <mxGeometry x="170" y="210" width="110" height="110" as="geometry" />
        </mxCell>
        <mxCell id="_5YoYfEXeYqXbbBFYo9I-24" value="" style="verticalLabelPosition=bottom;shadow=0;dashed=0;align=center;html=1;verticalAlign=top;strokeWidth=1;shape=mxgraph.mockup.graphics.simpleIcon;strokeColor=#999999;" vertex="1" parent="_5YoYfEXeYqXbbBFYo9I-1">
          <mxGeometry x="320" y="210" width="110" height="110" as="geometry" />
        </mxCell>
        <mxCell id="_5YoYfEXeYqXbbBFYo9I-25" value="" style="verticalLabelPosition=bottom;shadow=0;dashed=0;align=center;html=1;verticalAlign=top;strokeWidth=1;shape=mxgraph.mockup.graphics.simpleIcon;strokeColor=#999999;" vertex="1" parent="_5YoYfEXeYqXbbBFYo9I-1">
          <mxGeometry x="470" y="210" width="110" height="110" as="geometry" />
        </mxCell>
        <mxCell id="_5YoYfEXeYqXbbBFYo9I-26" value="" style="verticalLabelPosition=bottom;shadow=0;dashed=0;align=center;html=1;verticalAlign=top;strokeWidth=1;shape=mxgraph.mockup.graphics.simpleIcon;strokeColor=#999999;" vertex="1" parent="_5YoYfEXeYqXbbBFYo9I-1">
          <mxGeometry x="20" y="345" width="110" height="110" as="geometry" />
        </mxCell>
        <mxCell id="_5YoYfEXeYqXbbBFYo9I-27" value="" style="verticalLabelPosition=bottom;shadow=0;dashed=0;align=center;html=1;verticalAlign=top;strokeWidth=1;shape=mxgraph.mockup.graphics.simpleIcon;strokeColor=#999999;" vertex="1" parent="_5YoYfEXeYqXbbBFYo9I-1">
          <mxGeometry x="170" y="345" width="110" height="110" as="geometry" />
        </mxCell>
        <mxCell id="_5YoYfEXeYqXbbBFYo9I-28" value="" style="verticalLabelPosition=bottom;shadow=0;dashed=0;align=center;html=1;verticalAlign=top;strokeWidth=1;shape=mxgraph.mockup.graphics.simpleIcon;strokeColor=#999999;" vertex="1" parent="_5YoYfEXeYqXbbBFYo9I-1">
          <mxGeometry x="320" y="345" width="110" height="110" as="geometry" />
        </mxCell>
        <mxCell id="_5YoYfEXeYqXbbBFYo9I-29" value="" style="verticalLabelPosition=bottom;shadow=0;dashed=0;align=center;html=1;verticalAlign=top;strokeWidth=1;shape=mxgraph.mockup.graphics.simpleIcon;strokeColor=#999999;" vertex="1" parent="_5YoYfEXeYqXbbBFYo9I-1">
          <mxGeometry x="470" y="345" width="110" height="110" as="geometry" />
        </mxCell>
        <mxCell id="_5YoYfEXeYqXbbBFYo9I-30" value="Course Title" style="text;html=1;strokeColor=none;fillColor=none;align=center;verticalAlign=middle;whiteSpace=wrap;rounded=0;" vertex="1" parent="_5YoYfEXeYqXbbBFYo9I-1">
          <mxGeometry x="20" y="210" width="110" height="25" as="geometry" />
        </mxCell>
        <mxCell id="_5YoYfEXeYqXbbBFYo9I-38" value="Course Title" style="text;html=1;strokeColor=none;fillColor=none;align=center;verticalAlign=middle;whiteSpace=wrap;rounded=0;" vertex="1" parent="_5YoYfEXeYqXbbBFYo9I-1">
          <mxGeometry x="170" y="210" width="110" height="25" as="geometry" />
        </mxCell>
        <mxCell id="_5YoYfEXeYqXbbBFYo9I-39" value="Course Title" style="text;html=1;strokeColor=none;fillColor=none;align=center;verticalAlign=middle;whiteSpace=wrap;rounded=0;" vertex="1" parent="_5YoYfEXeYqXbbBFYo9I-1">
          <mxGeometry x="320" y="210" width="110" height="25" as="geometry" />
        </mxCell>
        <mxCell id="_5YoYfEXeYqXbbBFYo9I-40" value="Course Title" style="text;html=1;strokeColor=none;fillColor=none;align=center;verticalAlign=middle;whiteSpace=wrap;rounded=0;" vertex="1" parent="_5YoYfEXeYqXbbBFYo9I-1">
          <mxGeometry x="470" y="210" width="110" height="25" as="geometry" />
        </mxCell>
        <mxCell id="_5YoYfEXeYqXbbBFYo9I-41" value="Course Title" style="text;html=1;strokeColor=none;fillColor=none;align=center;verticalAlign=middle;whiteSpace=wrap;rounded=0;" vertex="1" parent="_5YoYfEXeYqXbbBFYo9I-1">
          <mxGeometry x="20" y="345" width="110" height="25" as="geometry" />
        </mxCell>
        <mxCell id="_5YoYfEXeYqXbbBFYo9I-42" value="Course Title" style="text;html=1;strokeColor=none;fillColor=none;align=center;verticalAlign=middle;whiteSpace=wrap;rounded=0;" vertex="1" parent="_5YoYfEXeYqXbbBFYo9I-1">
          <mxGeometry x="170" y="345" width="110" height="25" as="geometry" />
        </mxCell>
        <mxCell id="_5YoYfEXeYqXbbBFYo9I-43" value="Course Title" style="text;html=1;strokeColor=none;fillColor=none;align=center;verticalAlign=middle;whiteSpace=wrap;rounded=0;" vertex="1" parent="_5YoYfEXeYqXbbBFYo9I-1">
          <mxGeometry x="320" y="345" width="110" height="25" as="geometry" />
        </mxCell>
        <mxCell id="_5YoYfEXeYqXbbBFYo9I-44" value="Course Title" style="text;html=1;strokeColor=none;fillColor=none;align=center;verticalAlign=middle;whiteSpace=wrap;rounded=0;" vertex="1" parent="_5YoYfEXeYqXbbBFYo9I-1">
          <mxGeometry x="470" y="345" width="110" height="25" as="geometry" />
        </mxCell>
        <mxCell id="_5YoYfEXeYqXbbBFYo9I-45" value="tutor name" style="text;html=1;strokeColor=none;fillColor=none;align=center;verticalAlign=middle;whiteSpace=wrap;rounded=0;" vertex="1" parent="_5YoYfEXeYqXbbBFYo9I-1">
          <mxGeometry x="20" y="370" width="60" height="20" as="geometry" />
        </mxCell>
        <mxCell id="_5YoYfEXeYqXbbBFYo9I-46" value="tutor name" style="text;html=1;strokeColor=none;fillColor=none;align=center;verticalAlign=middle;whiteSpace=wrap;rounded=0;" vertex="1" parent="_5YoYfEXeYqXbbBFYo9I-1">
          <mxGeometry x="20" y="235" width="60" height="20" as="geometry" />
        </mxCell>
        <mxCell id="_5YoYfEXeYqXbbBFYo9I-47" value="tutor name" style="text;html=1;strokeColor=none;fillColor=none;align=center;verticalAlign=middle;whiteSpace=wrap;rounded=0;" vertex="1" parent="_5YoYfEXeYqXbbBFYo9I-1">
          <mxGeometry x="170" y="370" width="60" height="20" as="geometry" />
        </mxCell>
        <mxCell id="_5YoYfEXeYqXbbBFYo9I-48" value="tutor name" style="text;html=1;strokeColor=none;fillColor=none;align=center;verticalAlign=middle;whiteSpace=wrap;rounded=0;" vertex="1" parent="_5YoYfEXeYqXbbBFYo9I-1">
          <mxGeometry x="170" y="235" width="60" height="20" as="geometry" />
        </mxCell>
        <mxCell id="_5YoYfEXeYqXbbBFYo9I-49" value="tutor name" style="text;html=1;strokeColor=none;fillColor=none;align=center;verticalAlign=middle;whiteSpace=wrap;rounded=0;" vertex="1" parent="_5YoYfEXeYqXbbBFYo9I-1">
          <mxGeometry x="320" y="370" width="60" height="20" as="geometry" />
        </mxCell>
        <mxCell id="_5YoYfEXeYqXbbBFYo9I-50" value="tutor name" style="text;html=1;strokeColor=none;fillColor=none;align=center;verticalAlign=middle;whiteSpace=wrap;rounded=0;" vertex="1" parent="_5YoYfEXeYqXbbBFYo9I-1">
          <mxGeometry x="320" y="235" width="60" height="20" as="geometry" />
        </mxCell>
        <mxCell id="_5YoYfEXeYqXbbBFYo9I-51" value="tutor name" style="text;html=1;strokeColor=none;fillColor=none;align=center;verticalAlign=middle;whiteSpace=wrap;rounded=0;" vertex="1" parent="_5YoYfEXeYqXbbBFYo9I-1">
          <mxGeometry x="470" y="370" width="60" height="20" as="geometry" />
        </mxCell>
        <mxCell id="_5YoYfEXeYqXbbBFYo9I-52" value="tutor name" style="text;html=1;strokeColor=none;fillColor=none;align=center;verticalAlign=middle;whiteSpace=wrap;rounded=0;" vertex="1" parent="_5YoYfEXeYqXbbBFYo9I-1">
          <mxGeometry x="470" y="235" width="60" height="20" as="geometry" />
        </mxCell>
        <mxCell id="_5YoYfEXeYqXbbBFYo9I-53" value="" style="shape=image;html=1;verticalAlign=top;verticalLabelPosition=bottom;labelBackgroundColor=#ffffff;imageAspect=0;aspect=fixed;image=https://cdn4.iconfinder.com/data/icons/48-bubbles/48/30.User-128.png" vertex="1" parent="_5YoYfEXeYqXbbBFYo9I-1">
          <mxGeometry x="560" y="235" width="20" height="20" as="geometry" />
        </mxCell>
        <mxCell id="_5YoYfEXeYqXbbBFYo9I-54" value="" style="shape=image;html=1;verticalAlign=top;verticalLabelPosition=bottom;labelBackgroundColor=#ffffff;imageAspect=0;aspect=fixed;image=https://cdn4.iconfinder.com/data/icons/48-bubbles/48/30.User-128.png" vertex="1" parent="_5YoYfEXeYqXbbBFYo9I-1">
          <mxGeometry x="560" y="370" width="20" height="20" as="geometry" />
        </mxCell>
        <mxCell id="_5YoYfEXeYqXbbBFYo9I-55" value="" style="shape=image;html=1;verticalAlign=top;verticalLabelPosition=bottom;labelBackgroundColor=#ffffff;imageAspect=0;aspect=fixed;image=https://cdn4.iconfinder.com/data/icons/48-bubbles/48/30.User-128.png" vertex="1" parent="_5YoYfEXeYqXbbBFYo9I-1">
          <mxGeometry x="410" y="235" width="20" height="20" as="geometry" />
        </mxCell>
        <mxCell id="_5YoYfEXeYqXbbBFYo9I-56" value="" style="shape=image;html=1;verticalAlign=top;verticalLabelPosition=bottom;labelBackgroundColor=#ffffff;imageAspect=0;aspect=fixed;image=https://cdn4.iconfinder.com/data/icons/48-bubbles/48/30.User-128.png" vertex="1" parent="_5YoYfEXeYqXbbBFYo9I-1">
          <mxGeometry x="410" y="370" width="20" height="20" as="geometry" />
        </mxCell>
        <mxCell id="_5YoYfEXeYqXbbBFYo9I-57" value="" style="shape=image;html=1;verticalAlign=top;verticalLabelPosition=bottom;labelBackgroundColor=#ffffff;imageAspect=0;aspect=fixed;image=https://cdn4.iconfinder.com/data/icons/48-bubbles/48/30.User-128.png" vertex="1" parent="_5YoYfEXeYqXbbBFYo9I-1">
          <mxGeometry x="260" y="235" width="20" height="20" as="geometry" />
        </mxCell>
        <mxCell id="_5YoYfEXeYqXbbBFYo9I-58" value="" style="shape=image;html=1;verticalAlign=top;verticalLabelPosition=bottom;labelBackgroundColor=#ffffff;imageAspect=0;aspect=fixed;image=https://cdn4.iconfinder.com/data/icons/48-bubbles/48/30.User-128.png" vertex="1" parent="_5YoYfEXeYqXbbBFYo9I-1">
          <mxGeometry x="260" y="370" width="20" height="20" as="geometry" />
        </mxCell>
        <mxCell id="_5YoYfEXeYqXbbBFYo9I-59" value="" style="shape=image;html=1;verticalAlign=top;verticalLabelPosition=bottom;labelBackgroundColor=#ffffff;imageAspect=0;aspect=fixed;image=https://cdn4.iconfinder.com/data/icons/48-bubbles/48/30.User-128.png" vertex="1" parent="_5YoYfEXeYqXbbBFYo9I-1">
          <mxGeometry x="110" y="235" width="20" height="20" as="geometry" />
        </mxCell>
        <mxCell id="_5YoYfEXeYqXbbBFYo9I-60" value="" style="shape=image;html=1;verticalAlign=top;verticalLabelPosition=bottom;labelBackgroundColor=#ffffff;imageAspect=0;aspect=fixed;image=https://cdn4.iconfinder.com/data/icons/48-bubbles/48/30.User-128.png" vertex="1" parent="_5YoYfEXeYqXbbBFYo9I-1">
          <mxGeometry x="110" y="370" width="20" height="20" as="geometry" />
        </mxCell>
        <mxCell id="_5YoYfEXeYqXbbBFYo9I-62" value="" style="shape=image;html=1;verticalAlign=top;verticalLabelPosition=bottom;labelBackgroundColor=#ffffff;imageAspect=0;aspect=fixed;image=https://cdn1.iconfinder.com/data/icons/jumpicon-basic-ui-glyph-1/32/-_Dot-More-Vertical-Menu-128.png" vertex="1" parent="_5YoYfEXeYqXbbBFYo9I-1">
          <mxGeometry x="526" y="131" width="20" height="20" as="geometry" />
        </mxCell>
        <mxCell id="_5YoYfEXeYqXbbBFYo9I-63" value="" style="shape=image;html=1;verticalAlign=top;verticalLabelPosition=bottom;labelBackgroundColor=#ffffff;imageAspect=0;aspect=fixed;image=https://cdn1.iconfinder.com/data/icons/jumpicon-basic-ui-glyph-1/32/-_Dot-More-Vertical-Menu-128.png" vertex="1" parent="_5YoYfEXeYqXbbBFYo9I-1">
          <mxGeometry x="536" y="131" width="20" height="20" as="geometry" />
        </mxCell>
        <mxCell id="_5YoYfEXeYqXbbBFYo9I-64" value="" style="shape=image;html=1;verticalAlign=top;verticalLabelPosition=bottom;labelBackgroundColor=#ffffff;imageAspect=0;aspect=fixed;image=https://cdn1.iconfinder.com/data/icons/jumpicon-basic-ui-glyph-1/32/-_Dot-More-Vertical-Menu-128.png" vertex="1" parent="_5YoYfEXeYqXbbBFYo9I-1">
          <mxGeometry x="516" y="131" width="20" height="20" as="geometry" />
        </mxCell>
      </root>
    </mxGraphModel>
  </diagram>
</mxfile>
